{"accessors":[{"bufferView":2,"componentType":5126,"count":15662,"max":[382.68701171875,896.9530029296875,443.2539978027344],"min":[-950.3380126953125,-896.9530029296875,-6.8754048347473145],"type":"VEC3"},{"bufferView":2,"byteOffset":187944,"componentType":5126,"count":15662,"max":[0.9999950528144836,0.9998253583908081,0.9999595284461975],"min":[-0.9999514818191528,-0.999989926815033,-0.9999526739120483],"type":"VEC3"},{"bufferView":3,"componentType":5126,"count":15662,"max":[0.9999527335166931,0.999991238117218,0.9997766613960266,1],"min":[-0.9998694062232971,-0.9999917149543762,-0.999951183795929,-1],"type":"VEC4"},{"bufferView":1,"componentType":5126,"count":15662,"max":[0.9980679750442505,0.9981679916381836],"min":[0.00250855996273458,0.0029761800542473793],"type":"VEC2"},{"bufferView":0,"componentType":5125,"count":47682,"max":[15661],"min":[0],"type":"SCALAR"},{"bufferView":2,"byteOffset":375888,"componentType":5126,"count":102,"max":[334.4169921875,21.117095947265625,264.6929931640625],"min":[327.8630065917969,-21.117103576660156,257.6109924316406],"type":"VEC3"},{"bufferView":2,"byteOffset":377112,"componentType":5126,"count":102,"max":[0.9966652393341064,0.9877622127532959,0.9918590188026428],"min":[-0.6021384000778198,-0.9877622127532959,-0.98768150806427],"type":"VEC3"},{"bufferView":3,"byteOffset":250592,"componentType":5126,"count":102,"max":[0.9981511235237122,0.9939641952514648,0.5408899188041687,1],"min":[-0.7160289287567139,-0.9939641356468201,-0.10068671405315399,-1],"type":"VEC4"},{"bufferView":1,"byteOffset":125296,"componentType":5126,"count":102,"max":[0.9642980098724365,0.9720410108566284],"min":[0.03021639958024025,0.03969943895936012],"type":"VEC2"},{"bufferView":0,"byteOffset":190728,"componentType":5125,"count":540,"max":[101],"min":[0],"type":"SCALAR"}],"asset":{"extras":{"author":"Dilirios (https://sketchfab.com/Dilirios)","license":"CC-BY-4.0 (http://creativecommons.org/licenses/by/4.0/)","source":"https://sketchfab.com/3d-models/alduin-c1d54a5145004198ac9c45da418239c8","title":"ALDUIN"},"generator":"Sketchfab-6.72.0","version":"2.0"},"bufferViews":[{"buffer":0,"byteLength":192888,"byteOffset":0,"name":"floatBufferViews","target":34963},{"buffer":0,"byteLength":126112,"byteOffset":192888,"byteStride":8,"name":"floatBufferViews","target":34962},{"buffer":0,"byteLength":378336,"byteOffset":319000,"byteStride":12,"name":"floatBufferViews","target":34962},{"buffer":0,"byteLength":252224,"byteOffset":697336,"byteStride":16,"name":"floatBufferViews","target":34962}],"buffers":[{"byteLength":949560,"uri":"70f70ea1b3710841a1aca75b1367f41e.bin"}],"images":[{"uri":"2fb81c586d2d9425b6557d5b57cb60dc.jpeg"},{"uri":"237ab76d5f53203177ada1873bb01f70.jpeg"},{"uri":"b89c5ff720923c294ca5a020ee2ac0a4.jpeg"}],"materials":[{"doubleSided":true,"emissiveFactor":[0,0,0],"name":"Material","pbrMetallicRoughness":{"baseColorFactor":[1,1,1,1],"baseColorTexture":{"index":0,"texCoord":0},"metallicFactor":0,"roughnessFactor":0.6}},{"doubleSided":true,"emissiveFactor":[0,0,0],"emissiveTexture":{"index":2,"texCoord":0},"name":"Material.1","pbrMetallicRoughness":{"baseColorFactor":[1,1,1,1],"baseColorTexture":{"index":1,"texCoord":0},"metallicFactor":0,"roughnessFactor":0.6}}],"meshes":[{"primitives":[{"attributes":{"NORMAL":1,"POSITION":0,"TANGENT":2,"TEXCOORD_0":3},"indices":4,"material":0,"mode":4}]},{"primitives":[{"attributes":{"NORMAL":6,"POSITION":5,"TANGENT":7,"TEXCOORD_0":8},"indices":9,"material":1,"mode":4}]}],"nodes":[{"children":[1],"name":"RootNode (gltf orientation matrix)","rotation":[-0.7071067811865475,0,0,0.7071067811865476]},{"children":[2],"name":"RootNode (model correction matrix)"},{"children":[3,4],"name":"alduin.obj.cleaner.materialmerger.gles"},{"mesh":0,"name":""},{"mesh":1,"name":""}],"samplers":[{"magFilter":9729,"minFilter":9987,"wrapS":10497,"wrapT":10497}],"scene":0,"scenes":[{"name":"OSG_Scene","nodes":[0]}],"textures":[{"sampler":0,"source":0},{"sampler":0,"source":1},{"sampler":0,"source":2}]}