{"accessors":[{"bufferView":2,"componentType":5126,"count":23602,"max":[121.44100189208984,121.44100189208984,400],"min":[-121.44100189208984,-121.44100189208984,0.00001525879997643642],"type":"VEC3"},{"bufferView":2,"byteOffset":283224,"componentType":5126,"count":23602,"max":[1,1,1],"min":[-1,-1,-1],"type":"VEC3"},{"bufferView":3,"componentType":5126,"count":23602,"max":[1,1,0.9954037070274353,1],"min":[-1,-1,-0.9977213740348816,-1],"type":"VEC4"},{"bufferView":1,"componentType":5126,"count":23602,"max":[0.9913920164108276,0.9950000047683716],"min":[0.004999999888241291,0.004999999888241291],"type":"VEC2"},{"bufferView":0,"componentType":5125,"count":102264,"max":[23601],"min":[0],"type":"SCALAR"}],"asset":{"extras":{"author":"SebastianSosnowski (https://sketchfab.com/SebastianSosnowski)","license":"CC-BY-4.0 (http://creativecommons.org/licenses/by/4.0/)","source":"https://sketchfab.com/models/a5a60953a21b41f0943b5308d742752a","title":"\"Nexus\" NASA 1960s super heavy rocket project"},"generator":"Sketchfab-3.43.6","version":"2.0"},"bufferViews":[{"buffer":0,"byteLength":409056,"byteOffset":0,"name":"floatBufferViews","target":34963},{"buffer":0,"byteLength":188816,"byteOffset":409056,"byteStride":8,"name":"floatBufferViews","target":34962},{"buffer":0,"byteLength":566448,"byteOffset":597872,"byteStride":12,"name":"floatBufferViews","target":34962},{"buffer":0,"byteLength":377632,"byteOffset":1164320,"byteStride":16,"name":"floatBufferViews","target":34962}],"buffers":[{"byteLength":1541952,"uri":"6470664b289d45f80c6c7648c6ec8e13.bin"}],"images":[{"uri":"f01533fc8ecbebc9cd0b578e4f7c85e8.png"},{"uri":"7f9c24cc96876edd80ecee404163c984.png"},{"uri":"56c9122fe0203c143c5aa0b571a0f70f.jpeg"}],"materials":[{"doubleSided":false,"name":"material","normalTexture":{"index":0,"scale":1,"texCoord":0},"occlusionTexture":{"index":1,"strength":1,"texCoord":0},"pbrMetallicRoughness":{"baseColorFactor":[1,1,1,1],"baseColorTexture":{"index":2,"texCoord":0},"metallicFactor":1,"metallicRoughnessTexture":{"index":1,"texCoord":0},"roughnessFactor":1}}],"meshes":[{"primitives":[{"attributes":{"NORMAL":1,"POSITION":0,"TANGENT":2,"TEXCOORD_0":3},"indices":4,"material":0,"mode":4}]}],"nodes":[{"children":[1],"name":"RootNode (gltf orientation matrix)","rotation":[-0.7071067811865475,0,0,0.7071067811865476]},{"children":[2],"name":"RootNode (model correction matrix)"},{"children":[3],"name":"Nexus.obj.cleaner.materialmerger.gles"},{"mesh":0,"name":""}],"samplers":[{"magFilter":9729,"minFilter":9987,"wrapS":10497,"wrapT":10497}],"scene":0,"scenes":[{"name":"OSG_Scene","nodes":[0]}],"textures":[{"sampler":0,"source":0},{"sampler":0,"source":1},{"sampler":0,"source":2}]}