{"accessors":[{"bufferView":2,"componentType":5126,"count":65532,"max":[0.5,0.5,0.07931800186634064],"min":[-0.5,-0.4882580041885376,0],"type":"VEC3"},{"bufferView":2,"byteOffset":786384,"componentType":5126,"count":65532,"max":[0.9038965106010437,0.8921494483947754,1],"min":[-0.8743398189544678,-0.9270709753036499,0.30069097876548767],"type":"VEC3"},{"bufferView":3,"componentType":5126,"count":65532,"max":[1,0.00007723266026005149,0.8813598155975342,1],"min":[0.42291203141212463,-0.0000955003488343209,-0.9061708450317383,1],"type":"VEC4"},{"bufferView":1,"componentType":5126,"count":65532,"max":[1,1],"min":[0,0.0117419995367527],"type":"VEC2"},{"bufferView":0,"componentType":5125,"count":315216,"type":"SCALAR"},{"bufferView":2,"byteOffset":1572768,"componentType":5126,"count":65532,"max":[0.5,0.10078299790620804,0.0690850019454956],"min":[-0.5,-0.5,0],"type":"VEC3"},{"bufferView":2,"byteOffset":2359152,"componentType":5126,"count":65532,"max":[0.8853591680526733,0.9356104731559753,1],"min":[-0.9033203125,-0.9348750114440918,0.31345808506011963],"type":"VEC3"},{"bufferView":3,"byteOffset":1048512,"componentType":5126,"count":65532,"max":[1,0.00008912041084840894,0.9303387999534607,1],"min":[0.3667013347148895,-0.00010494556772755459,-0.9099876880645752,1],"type":"VEC4"},{"bufferView":1,"byteOffset":524256,"componentType":5126,"count":65532,"max":[1,0.6007829904556274],"min":[0,0],"type":"VEC2"},{"bufferView":0,"byteOffset":1260864,"componentType":5125,"count":310524,"type":"SCALAR"},{"bufferView":2,"byteOffset":3145536,"componentType":5126,"count":65532,"max":[0.5,-0.14775000512599945,0.07303699851036072],"min":[-0.5,-0.5,0],"type":"VEC3"},{"bufferView":2,"byteOffset":3931920,"componentType":5126,"count":65532,"max":[0.8944795727729797,0.9356104731559753,1],"min":[-0.9348484873771667,-0.8936050534248352,0.27057716250419617],"type":"VEC3"},{"bufferView":3,"byteOffset":2097024,"componentType":5126,"count":65532,"max":[1,0.00008033413178054616,0.9462080001831055,1],"min":[0.3235590159893036,-0.00006445783219533041,-0.9236035346984863,1],"type":"VEC4"},{"bufferView":1,"byteOffset":1048512,"componentType":5126,"count":65532,"max":[1,0.35225000977516174],"min":[0,0],"type":"VEC2"},{"bufferView":0,"byteOffset":2502960,"componentType":5125,"count":324552,"type":"SCALAR"},{"bufferView":2,"byteOffset":4718304,"componentType":5126,"count":65532,"max":[0.5,0.4393349885940552,0.0801130011677742],"min":[-0.4980430006980896,-0.37279799580574036,0],"type":"VEC3"},{"bufferView":2,"byteOffset":5504688,"componentType":5126,"count":65532,"max":[0.8685307502746582,0.9343069791793823,1],"min":[-0.8937443494796753,-0.8901837468147278,0.30235713720321655],"type":"VEC3"},{"bufferView":3,"byteOffset":3145536,"componentType":5126,"count":65532,"max":[1,0.00008033413178054616,0.9204570651054382,1],"min":[0.3753890097141266,-0.00010494556772755459,-0.9268673658370972,1],"type":"VEC4"},{"bufferView":1,"byteOffset":1572768,"componentType":5126,"count":65532,"max":[1,0.9393349885940552],"min":[0.0019570000004023314,0.12720200419425964],"type":"VEC2"},{"bufferView":0,"byteOffset":3801168,"componentType":5125,"count":331941,"type":"SCALAR"},{"bufferView":2,"byteOffset":6291072,"componentType":5126,"count":59511,"max":[0.5,0.4980430006980896,0.07994899898767471],"min":[-0.4980430006980896,0.13405099511146545,0.004707000218331814],"type":"VEC3"},{"bufferView":2,"byteOffset":7005204,"componentType":5126,"count":59511,"max":[0.9032151699066162,0.9125640988349915,1],"min":[-0.8926312327384949,-0.9154472947120667,0.2557804584503174],"type":"VEC3"},{"bufferView":3,"byteOffset":4194048,"componentType":5126,"count":59511,"max":[1,0.00007100452057784423,0.9413787722587585,1],"min":[0.33735162019729614,-0.00006924323679413646,-0.9217373728752136,1],"type":"VEC4"},{"bufferView":1,"byteOffset":2097024,"componentType":5126,"count":59511,"max":[1,0.9980430006980896],"min":[0.0019570000004023314,0.6340510249137878],"type":"VEC2"},{"bufferView":0,"byteOffset":5128932,"componentType":5125,"count":284493,"type":"SCALAR"}],"asset":{"extras":{"author":"aqsa_g (https://sketchfab.com/aqsa_g)","license":"CC-BY-4.0 (http://creativecommons.org/licenses/by/4.0/)","source":"https://sketchfab.com/3d-models/fantasy-warped-terrain-c133bad7281b4ae6bc90c12912cc7b9a","title":"Fantasy Warped Terrain"},"generator":"Sketchfab-10.59.0","version":"2.0"},"bufferViews":[{"buffer":0,"byteLength":6266904,"name":"floatBufferViews","target":34963},{"buffer":0,"byteLength":2573112,"byteOffset":6266904,"byteStride":8,"name":"floatBufferViews","target":34962},{"buffer":0,"byteLength":7719336,"byteOffset":8840016,"byteStride":12,"name":"floatBufferViews","target":34962},{"buffer":0,"byteLength":5146224,"byteOffset":16559352,"byteStride":16,"name":"floatBufferViews","target":34962}],"buffers":[{"byteLength":21705576,"uri":"d13a5e66dddeb1f7c3e18b90d427b078.bin"}],"images":[{"uri":"912ee35deaa96630af298245590ee4ae.png"},{"uri":"218f4111fd709cb5e0582fb71cde3814.png"}],"materials":[{"doubleSided":true,"name":"material_0","normalTexture":{"index":1,"scale":0.802824689709271},"pbrMetallicRoughness":{"baseColorTexture":{"index":0},"metallicFactor":0.6875068372918446,"roughnessFactor":0.9849055093157336}}],"meshes":[{"name":"Object_0","primitives":[{"attributes":{"NORMAL":1,"POSITION":0,"TANGENT":2,"TEXCOORD_0":3},"indices":4,"material":0,"mode":4}]},{"name":"Object_1","primitives":[{"attributes":{"NORMAL":6,"POSITION":5,"TANGENT":7,"TEXCOORD_0":8},"indices":9,"material":0,"mode":4}]},{"name":"Object_2","primitives":[{"attributes":{"NORMAL":11,"POSITION":10,"TANGENT":12,"TEXCOORD_0":13},"indices":14,"material":0,"mode":4}]},{"name":"Object_3","primitives":[{"attributes":{"NORMAL":16,"POSITION":15,"TANGENT":17,"TEXCOORD_0":18},"indices":19,"material":0,"mode":4}]},{"name":"Object_4","primitives":[{"attributes":{"NORMAL":21,"POSITION":20,"TANGENT":22,"TEXCOORD_0":23},"indices":24,"material":0,"mode":4}]}],"nodes":[{"children":[1],"matrix":[1,0,0,0,0,2.220446049250313e-16,-1,0,0,1,2.220446049250313e-16,0,0,0,0,1],"name":"Sketchfab_model"},{"children":[2,3,4,5,6],"name":"_SketchUp_Snowy CanyonB.obj.cleaner.materialmerger.gles"},{"mesh":0,"name":"Object_2"},{"mesh":1,"name":"Object_3"},{"mesh":2,"name":"Object_4"},{"mesh":3,"name":"Object_5"},{"mesh":4,"name":"Object_6"}],"samplers":[{"magFilter":9729,"minFilter":9987,"wrapS":10497,"wrapT":10497}],"scene":0,"scenes":[{"name":"Sketchfab_Scene","nodes":[0]}],"textures":[{"sampler":0,"source":0},{"sampler":0,"source":1}]}