{
  "accessors": [
    {
      "bufferView": 2,
      "componentType": 5126,
      "count": 15662,
      "max": [
        382.68701171875,
        896.9530029296875,
        443.25399780273438
      ],
      "min": [
        -950.3380126953125,
        -896.9530029296875,
        -6.8754048347473145
      ],
      "type": "VEC3"
    },
    {
      "bufferView": 2,
      "byteOffset": 187944,
      "componentType": 5126,
      "count": 15662,
      "max": [
        0.99999505281448364,
        0.99982535839080811,
        0.99995952844619751
      ],
      "min": [
        -0.99995148181915283,
        -0.99998992681503296,
        -0.99995267391204834
      ],
      "type": "VEC3"
    },
    {
      "bufferView": 3,
      "componentType": 5126,
      "count": 15662,
      "max": [
        0.99995273351669312,
        0.99999123811721802,
        0.99977666139602661,
        1
      ],
      "min": [
        -0.99986940622329712,
        -0.99999171495437622,
        -0.99995118379592896,
        -1
      ],
      "type": "VEC4"
    },
    {
      "bufferView": 1,
      "componentType": 5126,
      "count": 15662,
      "max": [
        0.99806797504425049,
        0.99816799163818359
      ],
      "min": [
        0.00250855996273458,
        0.0029761800542473793
      ],
      "type": "VEC2"
    },
    {
      "bufferView": 0,
      "componentType": 5125,
      "count": 47682,
      "max": [
        15661
      ],
      "min": [
        0
      ],
      "type": "SCALAR"
    },
    {
      "bufferView": 2,
      "byteOffset": 375888,
      "componentType": 5126,
      "count": 102,
      "max": [
        334.4169921875,
        21.117095947265625,
        264.6929931640625
      ],
      "min": [
        327.86300659179688,
        -21.117103576660156,
        257.61099243164062
      ],
      "type": "VEC3"
    },
    {
      "bufferView": 2,
      "byteOffset": 377112,
      "componentType": 5126,
      "count": 102,
      "max": [
        0.99666523933410645,
        0.9877622127532959,
        0.99185901880264282
      ],
      "min": [
        -0.60213840007781982,
        -0.9877622127532959,
        -0.98768150806427002
      ],
      "type": "VEC3"
    },
    {
      "bufferView": 3,
      "byteOffset": 250592,
      "componentType": 5126,
      "count": 102,
      "max": [
        0.99815112352371216,
        0.99396419525146484,
        0.5408899188041687,
        1
      ],
      "min": [
        -0.71602892875671387,
        -0.99396413564682007,
        -0.10068671405315399,
        -1
      ],
      "type": "VEC4"
    },
    {
      "bufferView": 1,
      "byteOffset": 125296,
      "componentType": 5126,
      "count": 102,
      "max": [
        0.96429800987243652,
        0.97204101085662842
      ],
      "min": [
        0.03021639958024025,
        0.039699438959360123
      ],
      "type": "VEC2"
    },
    {
      "bufferView": 0,
      "byteOffset": 190728,
      "componentType": 5125,
      "count": 540,
      "max": [
        101
      ],
      "min": [
        0
      ],
      "type": "SCALAR"
    }
  ],
  "asset": {
    "extras": {
      "author": "Dilirios (https://sketchfab.com/Dilirios)",
      "license": "CC-BY-4.0 (http://creativecommons.org/licenses/by/4.0/)",
      "source": "https://sketchfab.com/3d-models/alduin-c1d54a5145004198ac9c45da418239c8",
      "title": "ALDUIN"
    },
    "generator": "Sketchfab-6.72.0",
    "version": "2.0"
  },
  "bufferViews": [
    {
      "buffer": 0,
      "byteLength": 192888,
      "byteOffset": 0,
      "name": "floatBufferViews",
      "target": 34963
    },
    {
      "buffer": 0,
      "byteLength": 126112,
      "byteOffset": 192888,
      "byteStride": 8,
      "name": "floatBufferViews",
      "target": 34962
    },
    {
      "buffer": 0,
      "byteLength": 378336,
      "byteOffset": 319000,
      "byteStride": 12,
      "name": "floatBufferViews",
      "target": 34962
    },
    {
      "buffer": 0,
      "byteLength": 252224,
      "byteOffset": 697336,
      "byteStride": 16,
      "name": "floatBufferViews",
      "target": 34962
    }
  ],
  "buffers": [
    {
      "byteLength": 949560,
      "uri": "scene.bin"
    }
  ],
  "images": [
    {
      "uri": "textures/Material_baseColor.jpeg"
    },
    {
      "uri": "textures/Material.1_baseColor.jpeg"
    },
    {
      "uri": "textures/Material.1_emissive.jpeg"
    }
  ],
  "materials": [
    {
      "doubleSided": true,
      "emissiveFactor": [
        0,
        0,
        0
      ],
      "name": "Material",
      "pbrMetallicRoughness": {
        "baseColorFactor": [
          1,
          1,
          1,
          1
        ],
        "baseColorTexture": {
          "index": 0,
          "texCoord": 0
        },
        "metallicFactor": 0,
        "roughnessFactor": 0.59999999999999998
      }
    },
    {
      "doubleSided": true,
      "emissiveFactor": [
        0,
        0,
        0
      ],
      "emissiveTexture": {
        "index": 2,
        "texCoord": 0
      },
      "name": "Material.1",
      "pbrMetallicRoughness": {
        "baseColorFactor": [
          1,
          1,
          1,
          1
        ],
        "baseColorTexture": {
          "index": 1,
          "texCoord": 0
        },
        "metallicFactor": 0,
        "roughnessFactor": 0.59999999999999998
      }
    }
  ],
  "meshes": [
    {
      "primitives": [
        {
          "attributes": {
            "NORMAL": 1,
            "POSITION": 0,
            "TANGENT": 2,
            "TEXCOORD_0": 3
          },
          "indices": 4,
          "material": 0,
          "mode": 4
        }
      ]
    },
    {
      "primitives": [
        {
          "attributes": {
            "NORMAL": 6,
            "POSITION": 5,
            "TANGENT": 7,
            "TEXCOORD_0": 8
          },
          "indices": 9,
          "material": 1,
          "mode": 4
        }
      ]
    }
  ],
  "nodes": [
    {
      "children": [
        1
      ],
      "name": "RootNode (gltf orientation matrix)",
      "rotation": [
        -0.70710678118654746,
        -0,
        -0,
        0.70710678118654757
      ]
    },
    {
      "children": [
        2
      ],
      "name": "RootNode (model correction matrix)"
    },
    {
      "children": [
        3,
        4
      ],
      "name": "alduin.obj.cleaner.materialmerger.gles"
    },
    {
      "mesh": 0,
      "name": ""
    },
    {
      "mesh": 1,
      "name": ""
    }
  ],
  "samplers": [
    {
      "magFilter": 9729,
      "minFilter": 9987,
      "wrapS": 10497,
      "wrapT": 10497
    }
  ],
  "scene": 0,
  "scenes": [
    {
      "name": "OSG_Scene",
      "nodes": [
        0
      ]
    }
  ],
  "textures": [
    {
      "sampler": 0,
      "source": 0
    },
    {
      "sampler": 0,
      "source": 1
    },
    {
      "sampler": 0,
      "source": 2
    }
  ]
}

